PathFileType	4	(X/Y/Z)	./resultDataOpenSim/trcMotMarkerGrf/sub06/qtm-15-02.trc
DataRate	CameraRate	NumFrames	NumMarkers	Units	OrigDataRate	OrigDataStartFrame	OrigNumFrames
250.000000	250.000000	9	24	m	250.000000	342	547
Frame#	Time	L.Toe.Tip			R.Toe.Tip			L.Ankle.Lat			R.Ankle.Lat			L.Ankle.Med			R.Ankle.Med			L.Heel			R.Heel			L.Knee.Lat			R.Knee.Lat			L.Knee.Med			R.Knee.Med			L.Thigh.Upper			R.Thigh.Upper			L.ASIS			R.ASIS			V.Sacral			L.Acromium			R.Acromium			C7			L.Elbow			R.Elbow			L.Wrist.Lat			R.Wrist.Lat
		X1	Y1	Z1	X2	Y2	Z2	X3	Y3	Z3	X4	Y4	Z4	X5	Y5	Z5	X6	Y6	Z6	X7	Y7	Z7	X8	Y8	Z8	X9	Y9	Z9	X10	Y10	Z10	X11	Y11	Z11	X12	Y12	Z12	X13	Y13	Z13	X14	Y14	Z14	X15	Y15	Z15	X16	Y16	Z16	X17	Y17	Z17	X18	Y18	Z18	X19	Y19	Z19	X20	Y20	Z20	X21	Y21	Z21	X22	Y22	Z22	X23	Y23	Z23	X24	Y24	Z24

342	1.364	0.67706478	0.1436941	-0.071402464	0.97749548	0.035395168	0.082125771	0.67903118	0.27555382	-0.10112561	0.84153219	0.063379577	0.10752927	0.70049478	0.27954948	-0.019264911	0.86098146	0.082673573	0.020110907	0.63093476	0.33101007	-0.049666897	0.78534083	0.043509707	0.049687604	1.0143063	0.43472261	-0.13762323	0.94954808	0.43714877	0.13934878	1.0127315	0.4277844	-0.0065007318	0.90605676	0.43133605	0.017203547	0.83267501	0.7866165	-0.13916646	0.8601313	0.80601218	0.20385274	0.90373625	0.84117518	-0.10081062	0.93455425	0.86334081	0.14045388	0.73363689	0.92305543	0.04048541	0.90345083	1.3335263	-0.15105694	0.89661653	1.3043372	0.20854661	0.81985766	1.3602868	0.027613624	0.89484063	1.0102274	-0.22501038	0.82113963	0.99037158	0.27669319	1.0946009	0.87177255	-0.17069558	1.0124806	0.83457634	0.30537705
343	1.368	0.69165446	0.14360219	-0.071584332	0.97750275	0.035402551	0.082086974	0.69130311	0.2752013	-0.10136177	0.84164156	0.063696148	0.10749028	0.7120733	0.27985697	-0.019320848	0.86100138	0.083049076	0.020117182	0.64191119	0.33007076	-0.050186593	0.7854512	0.043958882	0.049567051	1.0242908	0.43951716	-0.13669677	0.9496246	0.43767041	0.13906793	1.0233396	0.4327659	-0.0054158425	0.90581327	0.43205247	0.016530519	0.83926809	0.79005907	-0.13984613	0.86465455	0.80727191	0.20357564	0.90938213	0.84439478	-0.10089715	0.93960209	0.86510078	0.14033613	0.73911596	0.9253586	0.040107341	0.90802643	1.3359219	-0.15129641	0.90119687	1.3075575	0.20828597	0.82432961	1.3626561	0.027354518	0.89686359	1.0129482	-0.22529335	0.82944658	0.99252758	0.27681531	1.0941504	0.87021717	-0.17293277	1.0256043	0.84192544	0.30297642
344	1.372	0.70645706	0.14335209	-0.071790289	0.9775183	0.035405924	0.082053494	0.70362479	0.27459049	-0.1016148	0.84176225	0.064044241	0.10743724	0.72370043	0.27994168	-0.019422208	0.8610731	0.083486322	0.020082847	0.65292419	0.3288314	-0.050806117	0.78557395	0.044435893	0.049443376	1.034277	0.44422714	-0.13569177	0.94966053	0.4382119	0.13875117	1.0327815	0.43765907	-0.0045652268	0.90552624	0.43284255	0.015884834	0.8458527	0.79342991	-0.14050872	0.8696029	0.80861713	0.20303804	0.91488503	0.84762708	-0.10088257	0.94461387	0.86677665	0.14019651	0.74480851	0.92757341	0.039695834	0.91257954	1.3382556	-0.15153634	0.90579904	1.3107088	0.20801971	0.82879755	1.3649606	0.027100434	0.89894405	1.0156852	-0.22542455	0.83776118	0.99469805	0.2769272	1.0936365	0.86872277	-0.17521476	1.0385782	0.84938439	0.30050541
345	1.376	0.7214657	0.14291258	-0.071993955	0.97754619	0.035409528	0.082025639	0.71597186	0.27378558	-0.10188363	0.84189842	0.064428093	0.10736024	0.73549283	0.27979498	-0.019594085	0.86119113	0.083979245	0.020027251	0.66395336	0.32729866	-0.051483471	0.78569504	0.044933165	0.04930072	1.0441982	0.44884484	-0.13466373	0.9496205	0.4387564	0.13835492	1.040802	0.44241451	-0.004010793	0.90530462	0.43360964	0.015205986	0.85242188	0.79672178	-0.14115662	0.87444445	0.80990711	0.20242001	0.92048381	0.85089051	-0.10071663	0.9496095	0.86838354	0.14004291	0.7505898	0.92970791	0.039275103	0.91711164	1.3405326	-0.15177727	0.91041556	1.3137773	0.20774276	0.83325677	1.3671993	0.026832973	0.90111288	1.0184357	-0.22542204	0.84600813	0.99686821	0.2770327	1.0930554	0.86729618	-0.17752317	1.0513698	0.85691885	0.29797267
346	1.38	0.73663256	0.14226667	-0.072188248	0.97758902	0.03541929	0.082003498	0.72832151	0.27282474	-0.10216299	0.84205272	0.064856028	0.10725333	0.74753527	0.27942068	-0.019855338	0.86135848	0.084518932	0.019966674	0.6749646	0.32548209	-0.052172907	0.78578243	0.04546306	0.04914059	1.0539707	0.45336582	-0.13367617	0.9495331	0.43929371	0.13791284	1.0478362	0.44715493	-0.0036058515	0.90534376	0.43415544	0.014474673	0.85897725	0.79993257	-0.14179644	0.87895524	0.8110883	0.20185543	0.9262871	0.85409823	-0.10051298	0.9546029	0.86991287	0.13990355	0.75631386	0.93177056	0.038846793	0.92162539	1.3427528	-0.15202241	0.91503955	1.3167495	0.2074476	0.83770182	1.3693724	0.026557544	0.90334176	1.0211727	-0.22535475	0.85415448	0.99900651	0.27712252	1.0924081	0.86594769	-0.17983766	1.0639348	0.86448884	0.29538434
347	1.384	0.7518252	0.14142552	-0.072341708	0.97764614	0.035436263	0.081984843	0.74062673	0.27171155	-0.10242125	0.84222384	0.065335702	0.10711262	0.7597784	0.27883121	-0.020182348	0.86158314	0.085099095	0.019903057	0.68597832	0.32339116	-0.052869738	0.78585468	0.046067562	0.048954361	1.0635509	0.45778076	-0.13274735	0.94949117	0.43983317	0.13752294	1.0550773	0.45208982	-0.0030645126	0.90572934	0.43442453	0.01380484	0.8655245	0.80305314	-0.14243359	0.88318985	0.81218344	0.20142943	0.93219646	0.85715885	-0.10040073	0.95958483	0.87134875	0.13980687	0.76196743	0.93375079	0.038363645	0.92612155	1.3449077	-0.15227377	0.91966978	1.3196224	0.20713038	0.84213007	1.3714807	0.026293425	0.90557306	1.0238651	-0.22530568	0.86226019	1.0010832	0.27717904	1.0917105	0.86468694	-0.18214068	1.0762607	0.87207419	0.29274864
348	1.388	0.76699016	0.14042898	-0.072447214	0.97771436	0.0354559	0.081965004	0.75286999	0.27043821	-0.10263707	0.84241244	0.065873359	0.10693764	0.77206163	0.27803386	-0.020520588	0.86188057	0.085712175	0.019822767	0.69703631	0.32103955	-0.053582424	0.78599144	0.046790025	0.048707137	1.0729347	0.46208184	-0.13185967	0.94957469	0.44040133	0.13726398	1.0633492	0.45718841	-0.0022623237	0.90634794	0.43462183	0.013369574	0.87206969	0.80606949	-0.14306966	0.88724072	0.81320789	0.2011841	0.93817092	0.8600768	-0.10036034	0.96453038	0.87268752	0.13976216	0.76766366	0.93562957	0.037755924	0.93060007	1.3469889	-0.15253163	0.92430822	1.3223991	0.2067923	0.84654568	1.3735222	0.026053783	0.90776209	1.0264931	-0.2253435	0.87042606	1.0030935	0.27720771	1.0909835	0.86351435	-0.18442525	1.0883906	0.87968989	0.29008348
349	1.392	0.78225668	0.1393406	-0.072566801	0.97778892	0.035472351	0.081940743	0.76510237	0.2689959	-0.10282835	0.84261561	0.066474152	0.10673463	0.78423616	0.27702945	-0.020823378	0.86229505	0.08634267	0.019693482	0.70811833	0.31844068	-0.054274408	0.78623596	0.047637226	0.048379108	1.0821751	0.46626744	-0.13098203	0.94978177	0.44102443	0.13712853	1.0723173	0.46216262	-0.0013283343	0.90700835	0.43501678	0.013203506	0.87862013	0.80898476	-0.14369846	0.89121133	0.81419176	0.20101899	0.94430707	0.86290297	-0.10027865	0.96941266	0.87392904	0.1397643	0.77348585	0.9374065	0.037011059	0.93506323	1.3489944	-0.15279438	0.92895913	1.3250795	0.2064394	0.8509616	1.3754811	0.025839537	0.90989882	1.0290523	-0.22548439	0.878706	1.0050657	0.27725349	1.0902299	0.86241375	-0.18670286	1.1003824	0.88736336	0.28741218
350	1.396	0.79776879	0.13820244	-0.072754498	0.9778625	0.035478941	0.08191315	0.77740405	0.26736855	-0.10302886	0.84282709	0.067142995	0.10651376	0.79627955	0.27581781	-0.021080878	0.86286271	0.086987166	0.019493538	0.71921098	0.31558756	-0.054911048	0.78655537	0.048587884	0.048001661	1.0913692	0.47033312	-0.13008491	0.950061	0.44171042	0.13704984	1.0812668	0.46682179	-0.00042209537	0.90761402	0.43570041	0.013152431	0.88519111	0.81182478	-0.14428944	0.8952294	0.81522792	0.20067755	0.9505938	0.86564215	-0.10011978	0.97421097	0.8750666	0.13980604	0.77935442	0.93910091	0.03621777	0.93951742	1.3509223	-0.15305864	0.93362672	1.3276588	0.20608067	0.85539195	1.377331	0.025640555	0.91201399	1.031552	-0.22565097	0.88709155	1.0070319	0.27736479	1.0894266	0.86136529	-0.18899163	1.1122712	0.89511479	0.2847478
